<?xml version="1.0" encoding="utf-8"?>
<!-- Generator: Adobe Illustrator 21.1.0, SVG Export Plug-In . SVG Version: 6.00 Build 0)  -->
<svg version="1.1" id="Слой_1" xmlns="http://www.w3.org/2000/svg" xmlns:xlink="http://www.w3.org/1999/xlink" x="0px" y="0px"
	 viewBox="0 0 150 60" style="enable-background:new 0 0 150 60;" xml:space="preserve">
<style type="text/css">
	.st0{filter:url(#Adobe_OpacityMaskFilter);}
	.st1{fill:#FFFFFF;}
	.st2{mask:url(#SVGID_1_);}
	.st3{filter:url(#Adobe_OpacityMaskFilter_1_);}
	.st4{fill:#666666;}
	.st5{fill:#545454;}
	.st6{fill:#494949;}
	.st7{fill:#14A4F4;}
	.st8{fill:none;stroke:#424242;stroke-miterlimit:10;}
	.st9{fill:#EDE42F;}
	.st10{fill:#DDD02A;}
	.st11{fill:#727272;}
	.st12{fill:#5E5E5E;}
	.st13{fill:#808080;}
	.st14{fill:#EBEBF7;}
	.st15{fill:#DFDFEF;}
	.st16{fill:#020202;}
	.st17{fill:#0385DD;}
	.st18{fill:#054A70;}
	.st19{fill:#424242;}
	.st20{fill:#95D8F9;}
</style>
<defs>
	<filter id="Adobe_OpacityMaskFilter" filterUnits="userSpaceOnUse" x="21.2" y="0.6" width="103.4" height="129.9">
		<feColorMatrix  type="matrix" values="1 0 0 0 0  0 1 0 0 0  0 0 1 0 0  0 0 0 1 0"/>
	</filter>
</defs>
<mask maskUnits="userSpaceOnUse" x="21.2" y="0.6" width="103.4" height="129.9" id="SVGID_1_">
	<g class="st0">
		<rect x="5.5" y="0.5" class="st1" width="136" height="55"/>
	</g>
</mask>
<g class="st2">
	<defs>
		<filter id="Adobe_OpacityMaskFilter_1_" filterUnits="userSpaceOnUse" x="41.6" y="0.6" width="63.4" height="129.9">
			<feColorMatrix  type="matrix" values="1 0 0 0 0  0 1 0 0 0  0 0 1 0 0  0 0 0 1 0"/>
		</filter>
	</defs>
	<mask maskUnits="userSpaceOnUse" x="41.6" y="0.6" width="63.4" height="129.9" id="SVGID_1_">
		<g class="st3">
			<rect x="11.1" y="1.8" class="st1" width="128.7" height="54.1"/>
		</g>
	</mask>
	<g>
		<path class="st4" d="M70.1,116.5c0,0,3.8,3.1,4.4,4.4c0.7-1.3,4.4-4,4.4-4L70.1,116.5z"/>
		<path class="st5" d="M58.1,55.8c-0.1,0.6-0.7,0.9-1.3,0.6c-3.8-1.8-10.9-6.1-12.9-11.1c-2.2-5.6-2.6-12-0.5-16.3
			c0.3-0.6,1.2-0.7,1.5-0.1c2.7,4.3,4.6,8.9,8.4,10.8c3,1.5,5.2,2.2,6.3,2.5c0.4,0.1,0.7,0.5,0.6,1L58.1,55.8z"/>
		<path class="st5" d="M88.1,57c0,0,11.1-5.7,14-11.7c2.6-5.4,2.6-12,0.5-16.4c-0.3-0.6-1.1-0.6-1.5-0.1c-2.8,4.3-4.6,8.9-8.4,10.8
			c-4.4,2.2-7.1,2.7-7.1,2.7L88.1,57z"/>
		<path class="st6" d="M45.7,40c0,2.7,2.2,8.8,3.3,11.6c-2.2-1.8-4.2-4-5.1-6.2c-2.2-5.6-2.6-12-0.5-16.3c0.3-0.6,1.2-0.7,1.5-0.1
			c0.7,1.2,1.4,2.4,2.1,3.5C46.3,33.8,45.7,37.5,45.7,40z"/>
		<path class="st7" d="M74.1,13.7c0,0,6.2-1.8,7.1-4.4c0.9-2.7,0.4-6,0.4-6s5.5,10.6-0.2,11.8c-5.8,1.1-7.3-0.7-7.3-0.7"/>
		<path class="st8" d="M88.1,57c0,0,11.1-5.7,14-11.7c2.6-5.4,2.6-12,0.5-16.4c-0.3-0.6-1.1-0.6-1.5-0.1c-2.8,4.3-4.6,8.9-8.4,10.8
			c-4.4,2.2-7.1,2.7-7.1,2.7L88.1,57z"/>
		<path class="st8" d="M60.3,43.2l-2.2,12.6c-0.1,0.6-0.7,0.9-1.3,0.6c-2.5-1.3-9.1-4.7-11.8-9.1c0,0,0,0,0,0c0,0,0,0,0-0.1
			c-0.1-0.1-0.2-0.2-0.2-0.3c0-0.1-0.1-0.1-0.1-0.2c-0.1-0.1-0.1-0.2-0.2-0.3c0-0.1-0.1-0.1-0.1-0.2c-0.1-0.1-0.1-0.2-0.2-0.4
			c0,0,0-0.1-0.1-0.1c-0.1-0.2-0.2-0.3-0.2-0.5c-0.1-0.2-0.1-0.3-0.2-0.5c0-0.1,0-0.1-0.1-0.2c0-0.1-0.1-0.2-0.1-0.3
			c0-0.1,0-0.1-0.1-0.2c0-0.1-0.1-0.2-0.1-0.3c0-0.1,0-0.2-0.1-0.2c0-0.1-0.1-0.2-0.1-0.3c0-0.1,0-0.2-0.1-0.3
			c0-0.1-0.1-0.2-0.1-0.3c0-0.1,0-0.2-0.1-0.3c0-0.1-0.1-0.2-0.1-0.3c0-0.1,0-0.2-0.1-0.2c0-0.1,0-0.2-0.1-0.3c0-0.1,0-0.2-0.1-0.3
			c0-0.1,0-0.2-0.1-0.3c0-0.1,0-0.2-0.1-0.3c0-0.1,0-0.2-0.1-0.3c0-0.1,0-0.2,0-0.3c0-0.1,0-0.2-0.1-0.3c0-0.1,0-0.2,0-0.3
			c0-0.1,0-0.2,0-0.3c0-0.1,0-0.2,0-0.3c0-0.1,0-0.2,0-0.3c0-0.1,0-0.2,0-0.3c0-0.1,0-0.2,0-0.3c0-0.1,0-0.2,0-0.3
			c0-0.1,0-0.2,0-0.3c0-0.1,0-0.2,0-0.3c0-0.1,0-0.2,0-0.3c0-0.1,0-0.2,0-0.3c0-0.1,0-0.2,0-0.3c0-0.1,0-0.2,0-0.3
			c0-0.1,0-0.2,0-0.3c0-0.1,0-0.2,0-0.3c0-0.1,0-0.2,0-0.3c0-0.1,0-0.2,0-0.3c0-0.1,0-0.2,0-0.3c0-0.1,0-0.2,0-0.3
			c0-0.1,0-0.2,0-0.3c0-0.1,0-0.2,0-0.3c0-0.1,0-0.2,0-0.3c0-0.1,0-0.2,0-0.2c0-0.1,0-0.2,0-0.3c0-0.1,0-0.2,0-0.2
			c0-0.1,0-0.2,0-0.3c0-0.1,0-0.2,0-0.2c0-0.1,0-0.2,0-0.3c0-0.1,0-0.2,0-0.2c0-0.1,0-0.2,0-0.2c0-0.1,0-0.2,0-0.2
			c0-0.1,0-0.2,0.1-0.2c0-0.1,0-0.2,0.1-0.2c0-0.1,0-0.2,0.1-0.2c0-0.1,0-0.1,0.1-0.2c0-0.1,0-0.2,0.1-0.2c0-0.1,0-0.1,0.1-0.2
			c0-0.1,0-0.2,0.1-0.2c0-0.1,0.1-0.1,0.1-0.2c0-0.1,0.1-0.1,0.1-0.2c0-0.1,0.1-0.1,0.1-0.2c0-0.1,0.1-0.1,0.1-0.2
			c0-0.1,0.1-0.1,0.1-0.2c0-0.1,0.1-0.1,0.1-0.2c0,0,0,0,0,0c0,0,0,0,0-0.1c0.3-0.6,1.2-0.7,1.5-0.1c0,0,0,0,0,0.1c0,0,0,0,0,0
			c0,0,0,0,0,0c0.2,0.3,0.3,0.6,0.5,0.8c0,0,0,0,0,0l0,0c2.4,4,4.3,8.1,7.8,9.8c3,1.5,5.2,2.2,6.3,2.5
			C60.1,42.3,60.4,42.7,60.3,43.2z"/>
		<path class="st9" d="M84.6,114.5c0,0,0,7.5,0.4,8s2.7,1.5,2.7,2.9c0,1.8,0.2,2.9-3.1,2.9s-5.1-0.2-5.3-2.2
			c-0.2-2.2,0.5-2.2,0.9-3.5c0.4-1.3,0.4-7.5,0.4-7.5L84.6,114.5z"/>
		<path class="st9" d="M64.5,114.5c0,0,0,7.5-0.4,8s-2.7,1.5-2.7,2.9c0,1.8-0.2,2.9,3.1,2.9s5.1-0.2,5.3-2.2
			c0.2-2.2-0.5-2.2-0.9-3.5c-0.4-1.3-0.4-7.5-0.4-7.5L64.5,114.5z"/>
		<path class="st10" d="M80.1,122.5c-0.4,1.3-1.1,1.3-0.9,3.5c0,0.3,0.1,0.5,0.2,0.8l4.1,0.1l0.7-3c0,0-2-1.1-2.4-2.9
			c-0.4-1.8,0-5.3,0-5.3l-1-0.8l-0.2,0C80.6,114.9,80.6,121.2,80.1,122.5z"/>
		<path class="st8" d="M84.6,114.5c0,0,0,7.5,0.4,8s2.7,1.5,2.7,2.9c0,1.8,0.2,2.9-3.1,2.9s-5.1-0.2-5.3-2.2
			c-0.2-2.2,0.5-2.2,0.9-3.5c0.4-1.3,0.4-7.5,0.4-7.5L84.6,114.5z"/>
		<path class="st8" d="M70.1,116.5c0,0,3.8,3.1,4.4,4.4c0.7-1.3,4.4-4,4.4-4L70.1,116.5z"/>
		<path class="st6" d="M99.2,44.5c-2.4,2.9-8.1,5.3-8.1,5.3L86,44.5l-0.4-2.1c0.4-0.1,3-0.7,7-2.7c3.8-1.9,5.7-6.6,8.4-10.8
			c0-0.1,0.1-0.1,0.1-0.1c0.8,2.6,0.9,5.4,0.9,7.5C102.1,39.1,101.4,41.9,99.2,44.5z"/>
		<path class="st10" d="M65.6,122.1c-0.2-3.1,0.7-6.9,0.7-6.9l-0.4-0.6l-1.3-0.1c0,0,0,7.5-0.4,8s-2.7,1.5-2.7,2.9
			c0,0.4,0,0.8,0,1.2l0.3,0.2l4.5,0.9C66.3,127.7,65.8,125.2,65.6,122.1z"/>
		<path class="st8" d="M64.5,114.5c0,0,0,7.5-0.4,8s-2.7,1.5-2.7,2.9c0,1.8-0.2,2.9,3.1,2.9s5.1-0.2,5.3-2.2
			c0.2-2.2-0.5-2.2-0.9-3.5c-0.4-1.3-0.4-7.5-0.4-7.5L64.5,114.5z"/>
		<path class="st4" d="M52.6,45.2c0,0,4.2,5.7,4,9.3c-0.2,4-1.1,4.2-3.3,6.9c-4.5,5.5-11.6,9.5-10.4,28.2
			c1.1,18.2,17.1,27.7,33.5,27.7c14.5,0,24.2-10.6,27.1-20.2s-0.3-22.6-6.7-31.5c-3.3-4.7-6.9-6.4-7.3-10.2c-0.4-3.1,2-9.1,2-9.1
			l-30.2-1.1H52.6z"/>
		<path class="st11" d="M81.2,9.3c-0.7,2.1-4.6,3.6-6.3,4.2l1.7,3.6c0,0,4.9-2.4,5.8-6.2c0.4-1.5,0-5.6-0.6-7.3
			C81.8,4.3,82,7,81.2,9.3z"/>
		<path class="st12" d="M76.4,117.4c1.8,0,3.4-0.2,5-0.4c-3.1-0.3-6.4-0.7-9-1.3c-7.1-1.8-10.4-3.8-15.8-7.5
			c-5.3-3.8-7.5-7.2-9.1-12.9c-1.6-5.5-1.8-9.1-1.6-13.8s0.9-6.2,2.9-10c2.2-4.1,3.3-5.1,5.3-7.5c2-2.5,3.1-3.8,5.1-7.8
			c2.1-4.3,7.1-7.5,7.1-7.5l-11.5,0.4c0.9,1.8,1.8,3.9,1.7,5.6c-0.2,4-1.1,4.2-3.3,6.9c-4.5,5.5-11.6,9.5-10.4,28.2
			C44,107.8,59.9,117.4,76.4,117.4z"/>
		<path class="st7" d="M80.1,14.4c0,0,6.7-3.1,6.4-4.7c1.3,1.8-0.4,5.8-2.4,6.2s-2.4,0.4-2.4,0.4L80.1,14.4z"/>
		<path class="st11" d="M86.6,9.7c0.2,1.3-5.1,4-6.4,4.7c1.4,0.1,3.1,1.1,4.7-0.9C85.9,12.2,86.5,11,86.6,9.7
			C86.6,9.8,86.6,9.8,86.6,9.7z"/>
		<path class="st13" d="M96.8,34.7c0,12.6-7.8,22.7-23.8,22.7c-17,0-23.8-10.2-23.8-22.7S59.8,12,73,12S96.8,22.1,96.8,34.7z"/>
		<path class="st14" d="M62.6,58.6c0-6.9-5.5-11.5-7.3-17.3c-1.6-4.9-2.9-10.9,0-14.9c1.8-3.1,8.2-6.9,12-1.6
			c3.8,5.3,4.2,8,4.4,10.9c0.2,2.9,3.8,1.1,3.8,1.1s0.2-5.8,1.8-9.5c1.5-3.7,8.8-8.6,12.6-1.6c4.2,7.8,2.7,11.1,2.2,14
			c-0.6,3.7-2.7,7.3-5.3,10.2c-2.7,2.9-2.9,3.3-2.7,8.7c0.2,4.7,7.1,17.6,8.4,27.1c1.8,12.6-1.5,26-18.2,26
			c-12.9,0-19.3-12.9-18.9-25.7C55.9,75.7,62.6,65.4,62.6,58.6z"/>
		<path class="st15" d="M74.4,111.6c5,0,8.8-1.2,11.6-3.2c-5.2-0.2-10-2.5-13.4-4.8c-7.8-5.3-8.9-8.9-9.8-15.5
			C61.9,81.4,65,75.2,66.4,69c1.3-6.2,2-13.3-0.2-18.6c-2.6-6.1-6.9-10.7-7.3-14.6c-0.7-5.5,0-14.9-3.5-9.3c-2.9,4-1.6,10,0,14.9
			c1.9,5.8,7.3,10.4,7.3,17.3c0,6.8-6.7,17.1-7.1,27.3C55.1,98.7,61.5,111.6,74.4,111.6z"/>
		<path class="st8" d="M62.6,58.6c0-6.9-5.5-11.5-7.3-17.3c-1.6-4.9-2.9-10.9,0-14.9c1.8-3.1,8.2-6.9,12-1.6c3.8,5.3,4.2,8,4.4,10.9
			c0.2,2.9,3.8,1.1,3.8,1.1s0.2-5.8,1.8-9.5c1.5-3.7,8.8-8.6,12.6-1.6c4.2,7.8,2.7,11.1,2.2,14c-0.6,3.7-2.7,7.3-5.3,10.2
			c-2.7,2.9-2.9,3.3-2.7,8.7c0.2,4.7,7.1,17.6,8.4,27.1c1.8,12.6-1.5,26-18.2,26c-12.9,0-19.3-12.9-18.9-25.7
			C55.9,75.7,62.6,65.4,62.6,58.6z"/>
		<circle class="st1" cx="61.6" cy="33.6" r="3"/>
		<circle class="st1" cx="84.7" cy="33.4" r="3"/>
		<circle class="st16" cx="62" cy="32.7" r="1.4"/>
		<circle class="st16" cx="85.1" cy="32.7" r="1.4"/>
		<path class="st10" d="M69.5,37c0,0-0.4,1.3,1.1,2.2c1.6,0.9,2.9,0.9,4.4,0.7c1.6-0.2,2.7-1.1,2.7-2c0-0.9,0-1.6,0-1.6L69.5,37z"/>
		<path class="st8" d="M69.5,37c0,0-0.4,1.3,1.1,2.2c1.6,0.9,2.9,0.9,4.4,0.7c1.6-0.2,2.7-1.1,2.7-2c0-0.9,0-1.6,0-1.6L69.5,37z"/>
		<path class="st9" d="M68.2,36.4c1-0.2,4.4-0.9,5.2-2.9c0.1-0.1,0.2-0.1,0.3,0c0.9,1.9,4.4,2.4,5.4,2.5c0.1,0,0.2,0.1,0.1,0.2
			c-0.5,1-3.1,2.1-5.2,2.1c-2.5,0-5.3-0.7-6-1.7C68,36.6,68.1,36.5,68.2,36.4z"/>
		<path class="st11" d="M63.7,13.7c-8.5,3.4-14.6,11.5-14.6,21c0,8.7,3.2,16.2,10.8,20c-1.5-2.9-2.3-4-4.8-9.3
			c-2.6-5.3-2.3-7.1-2.6-12.2s2-8.7,3.8-12.2C57.3,19.3,60.6,16.3,63.7,13.7z"/>
		<path class="st8" d="M96.8,65.7c-3.3-4.7-6.9-6.4-7.3-10.2c-0.1-0.9,0-2.1,0.3-3.4c0-0.2,0.1-0.3,0.2-0.4c4.6-4.2,6.8-10.2,6.8-17
			c0-8.2-4.6-15.5-11.4-19.4c1.4-1.3,2.3-4.1,1.2-5.5c0,0,0,0.1,0,0.1c0,0,0,0.1,0,0.1c0,0,0,0,0,0c-0.2,0.6-1.3,1.5-2.5,2.3
			c0.5-3.5-2.3-9-2.3-9s0,0.1,0,0.2c0,0,0,0.1,0,0.2c0,0,0,0,0,0c0,0.1,0,0.1,0,0.2c0,0,0,0,0,0c0,0.1,0,0.1,0,0.2c0,0,0,0,0,0
			c0,0.1,0,0.2,0,0.2c0,0,0,0,0,0.1c0,0.1,0,0.2,0,0.3c0,0,0,0,0,0.1c0,0.1,0,0.2,0,0.3c0,0,0,0,0,0c0,0.1,0,0.2,0,0.3
			c0,0,0,0.1,0,0.1c0,0.1,0,0.2,0,0.3c0,0,0,0.1,0,0.1c0,0.1,0,0.2,0,0.4c0,0,0,0,0,0c0,0.1,0,0.2,0,0.3c0,0,0,0,0,0.1
			c0,0.1,0,0.2,0,0.4c0,0,0,0.1,0,0.1c0,0.1,0,0.3,0,0.4c0,0,0,0,0,0.1c0,0.1,0,0.2-0.1,0.4c0,0,0,0,0,0c0,0.1-0.1,0.3-0.1,0.4
			c0,0,0,0.1,0,0.1c0,0.1-0.1,0.3-0.1,0.4c0,0,0,0,0,0.1c0,0.1-0.1,0.3-0.1,0.4c0,0.1-0.1,0.2-0.1,0.2c0,0,0,0,0,0.1
			c0,0.1-0.1,0.1-0.1,0.2c0,0,0,0,0,0.1c0,0.1-0.1,0.1-0.1,0.2c0,0,0,0,0,0.1c-0.1,0.1-0.1,0.1-0.2,0.2c0,0,0,0,0,0
			c0,0.1-0.1,0.1-0.1,0.2c0,0,0,0-0.1,0.1c0,0-0.1,0.1-0.1,0.1c0,0,0,0-0.1,0.1c-0.1,0.1-0.1,0.1-0.2,0.2c0,0,0,0,0,0
			c-0.1,0.1-0.2,0.1-0.2,0.2c0,0,0,0-0.1,0.1c-0.1,0-0.1,0.1-0.2,0.1c0,0-0.1,0-0.1,0.1c-0.1,0-0.1,0.1-0.2,0.1c0,0,0,0-0.1,0
			c-0.1,0.1-0.2,0.1-0.3,0.2c0,0,0,0-0.1,0c-0.1,0-0.1,0.1-0.2,0.1c0,0-0.1,0-0.1,0c-0.1,0-0.1,0.1-0.2,0.1c0,0-0.1,0-0.1,0
			c-0.1,0-0.2,0.1-0.3,0.1c0,0,0,0,0,0c-0.1,0-0.2,0.1-0.3,0.1c0,0-0.1,0-0.1,0c0,0,0,0,0,0c-1.5-0.3-3-0.4-4.6-0.4
			c-3.3,0-6.4,0.6-9.2,1.8l0,0c0,0,0,0,0,0c-0.2,0.1-0.5,0.2-0.7,0.3c-0.1,0-0.1,0-0.2,0.1c-0.5,0.2-0.9,0.4-1.4,0.7
			c0,0-0.1,0.1-0.1,0.1c-0.5,0.2-0.9,0.5-1.3,0.8c0,0-0.1,0.1-0.1,0.1c-0.4,0.3-0.9,0.6-1.3,0.9c0,0-0.1,0.1-0.1,0.1
			c-0.4,0.3-0.8,0.6-1.2,0.9c0,0-0.1,0.1-0.1,0.1c-0.4,0.3-0.8,0.7-1.1,1c0,0-0.1,0.1-0.1,0.1c-0.4,0.4-0.7,0.7-1,1.1
			c0,0-0.1,0.1-0.1,0.1c-0.2,0.2-0.3,0.4-0.5,0.6c0,0,0,0,0,0c-0.2,0.2-0.3,0.4-0.5,0.6c0,0-0.1,0.1-0.1,0.1
			c-0.1,0.2-0.3,0.4-0.4,0.6c0,0,0,0,0,0c-0.1,0.2-0.3,0.4-0.4,0.6c0,0-0.1,0.1-0.1,0.1c-0.1,0.2-0.3,0.4-0.4,0.6c0,0,0,0,0,0
			c-0.1,0.2-0.3,0.4-0.4,0.6c0,0.1-0.1,0.1-0.1,0.2c-0.1,0.2-0.2,0.4-0.3,0.7c0,0,0,0,0,0c-0.1,0.2-0.2,0.4-0.3,0.7
			c0,0.1-0.1,0.1-0.1,0.2c-0.1,0.2-0.2,0.5-0.3,0.7c0,0,0,0,0,0c-0.1,0.2-0.2,0.5-0.3,0.7c0,0.1,0,0.1-0.1,0.2
			c-0.1,0.2-0.2,0.5-0.2,0.7c0,0,0,0,0,0c-0.1,0.2-0.1,0.5-0.2,0.7c0,0.1,0,0.1-0.1,0.2c-0.1,0.2-0.1,0.5-0.2,0.7c0,0,0,0,0,0
			c-0.1,0.2-0.1,0.5-0.2,0.7c0,0.1,0,0.1,0,0.2c0,0.2-0.1,0.5-0.1,0.7c0,0,0,0,0,0c0,0.3-0.1,0.5-0.1,0.8c0,0.1,0,0.1,0,0.2
			c0,0.3-0.1,0.5-0.1,0.8c0,0,0,0,0,0c0,0.3,0,0.5,0,0.8c0,0.1,0,0.1,0,0.2c0,0.3,0,0.5,0,0.8c0,0.2,0,0.5,0,0.7c0,0.1,0,0.1,0,0.2
			c0,0.2,0,0.4,0,0.6c0,0.1,0,0.1,0,0.2c0,0.2,0,0.5,0,0.7c0,0,0,0.1,0,0.1c0,0.2,0,0.4,0.1,0.6c0,0.1,0,0.1,0,0.2
			c0,0.2,0,0.4,0.1,0.6c0,0,0,0.1,0,0.1c0,0.2,0.1,0.5,0.1,0.7c0,0.1,0,0.1,0,0.2c0,0.2,0.1,0.4,0.1,0.6c0,0.1,0,0.1,0,0.2
			c0,0.2,0.1,0.5,0.1,0.7c0,0,0,0,0,0c0,0.2,0.1,0.4,0.1,0.7c0,0.1,0,0.2,0.1,0.3c0,0.1,0.1,0.3,0.1,0.4c0,0,0,0.1,0,0.1
			c0.1,0.2,0.1,0.4,0.2,0.7c0,0,0,0.1,0,0.1c0,0.1,0.1,0.3,0.1,0.4c0,0.1,0.1,0.2,0.1,0.3c0.2,0.4,0.3,0.9,0.5,1.3
			c0,0,0,0.1,0.1,0.1c0.1,0.2,0.2,0.3,0.2,0.5c0,0,0,0.1,0,0.1c0.2,0.4,0.4,0.8,0.6,1.2c0,0,0,0.1,0.1,0.1c0.1,0.2,0.2,0.4,0.3,0.6
			c0,0,0,0,0,0c0.1,0.2,0.2,0.4,0.4,0.6c0,0,0,0,0,0c0.1,0.2,0.2,0.4,0.4,0.5c0,0,0,0,0,0.1c0.3,0.4,0.6,0.7,0.8,1.1
			c0,0.1,0.1,0.1,0.1,0.2c0.1,0.1,0.2,0.3,0.3,0.4c0,0,0,0,0.1,0.1c0.3,0.3,0.6,0.7,1,1c0,0,0,0,0.1,0c1.2,0.8,1,2.7,0.9,2.8
			c-0.2,4-1.1,4.2-3.3,6.9c-4.5,5.5-11.6,9.5-10.4,28.2c1.1,18.2,17.1,27.7,33.5,27.7c0.2,0,0.4,0,0.7,0c0.1,0,0.2,0,0.3,0
			c0.1,0,0.2,0,0.3,0c0.2,0,0.3,0,0.5,0c0.1,0,0.1,0,0.2,0c0.2,0,0.4,0,0.5,0c0,0,0.1,0,0.1,0c0.2,0,0.4,0,0.6-0.1c0,0,0,0,0,0
			c0.6-0.1,1.2-0.2,1.8-0.3c0,0,0,0,0,0h0c11.7-2.1,19.5-11.4,22-19.7C106.3,87.6,103.2,74.6,96.8,65.7z"/>
		<g>
			<g>
				<path class="st17" d="M91.7,56.6c0,2.9-8.3,5.3-18.5,5.3s-18.5-2.4-18.5-5.3c0-2.9,8.3-5.3,18.5-5.3S91.7,53.6,91.7,56.6z"/>
			</g>
			<rect x="59.5" y="51.2" class="st18" width="3.2" height="10.6"/>
			<rect x="65.4" y="51.2" class="st18" width="3.2" height="10.6"/>
			<rect x="71.2" y="51.2" class="st18" width="3.2" height="10.6"/>
			<rect x="76.9" y="51.2" class="st18" width="3.2" height="10.6"/>
			<rect x="82.9" y="51.2" class="st18" width="3.2" height="10.6"/>
			<g>
				<g>
					<path class="st19" d="M91.7,56.6c0,0.9-0.7,1.6-1.4,2c-0.7,0.5-1.5,0.8-2.3,1.2c-1.6,0.6-3.2,1-4.9,1.4
						c-3.3,0.7-6.7,0.9-10.1,1c-3.4,0-6.8-0.2-10.1-0.8c-1.7-0.3-3.3-0.7-4.9-1.3c-0.8-0.3-1.6-0.7-2.3-1.2c-0.4-0.2-0.7-0.5-1-0.9
						c-0.3-0.4-0.5-0.9-0.5-1.4c0-0.5,0.2-1,0.5-1.4c0.3-0.4,0.6-0.7,1-0.9c0.7-0.5,1.5-0.9,2.3-1.2c1.6-0.6,3.3-1.1,4.9-1.4
						c3.3-0.6,6.7-0.9,10.1-0.9c3.4,0.1,6.8,0.4,10.1,1.1c1.7,0.4,3.3,0.8,4.9,1.5c0.8,0.3,1.6,0.7,2.2,1.2
						C91,55,91.7,55.7,91.7,56.6z M91.6,56.6c0-0.8-0.7-1.5-1.4-1.9c-0.7-0.5-1.5-0.8-2.2-1.1c-1.6-0.6-3.2-0.9-4.9-1.2
						c-3.3-0.5-6.7-0.7-10-0.6c-3.3,0-6.7,0.3-10,0.8c-1.6,0.3-3.3,0.7-4.8,1.2c-0.8,0.3-1.5,0.6-2.2,1.1c-0.6,0.4-1.2,1-1.2,1.7
						c0,0.6,0.6,1.2,1.2,1.7c0.6,0.5,1.4,0.8,2.2,1.1c1.5,0.6,3.2,1,4.8,1.3c3.3,0.6,6.6,0.9,10,0.9c3.4,0,6.7-0.1,10-0.7
						c1.7-0.3,3.3-0.7,4.9-1.3c0.8-0.3,1.5-0.7,2.2-1.1C90.9,58.1,91.6,57.4,91.6,56.6z"/>
				</g>
			</g>
			<path class="st7" d="M91.8,85.1l-10.6,1.1l-3.5-34.9c0,0,3.6-0.4,5.1-0.4c1.5,0,4.6,0.1,4.6,0.1c0.6-0.1,1.1,0.4,1.1,0.9
				L91.8,85.1z"/>
			<polygon class="st17" points="78.2,56.7 88.9,55.6 88.5,52.4 77.9,53.5 			"/>
			<polygon class="st17" points="78.8,61.8 89.4,60.7 89.1,57.5 78.4,58.6 			"/>
			<polygon class="st17" points="79.3,67.2 89.9,66.1 89.6,62.9 79,64 			"/>
			<polygon class="st17" points="79.9,73 90.5,71.9 90.2,68.7 79.6,69.8 			"/>
			<polygon class="st17" points="80.4,78.6 91,77.5 90.7,74.3 80.1,75.4 			"/>
			<g>
				<path class="st19" d="M91.8,85.1l-10.6,1.2l-0.1,0l0-0.1l-3.8-34.9l0-0.4l0.4,0l4.9-0.5c0.8,0,1.6,0,2.4,0l2.4,0l-0.1,0
					c0.5-0.1,1.1,0.2,1.4,0.7c0.2,0.2,0.2,0.5,0.3,0.7l0.1,0.6l0.2,2.2l0.4,4.4c0.3,2.9,0.5,5.9,0.8,8.8
					C91,73.6,91.4,79.4,91.8,85.1z M91.8,85c-0.7-5.9-1.5-11.8-2.1-17.5c-0.3-2.9-0.7-5.8-1-8.6l-0.4-4.3L88,52.4L88,51.9
					c0-0.1,0-0.2-0.1-0.3c-0.1-0.2-0.3-0.3-0.5-0.2l0,0l0,0l-2.4-0.1c-0.8,0-1.6-0.1-2.4,0l-4.8,0.4l0.4-0.4l3.3,34.9L81.2,86
					L91.8,85z"/>
			</g>
			<polygon class="st17" points="81,84.6 91.6,83.5 91.3,80.3 80.7,81.4 			"/>
			<path class="st20" d="M82.5,82l-10.6-0.3l0.9-30.6c0-0.4,0.3-0.7,0.7-0.7c0,0,2.8-0.7,4.6-0.5c2.7,0.2,4.4,0.8,4.4,0.8
				c0.6,0,1,0.5,1,1L82.5,82z"/>
			<circle class="st20" cx="72.3" cy="83.3" r="1.7"/>
			<circle class="st20" cx="77.2" cy="83.5" r="1.7"/>
			<circle class="st20" cx="82.1" cy="83.7" r="1.7"/>
			<polygon class="st7" points="72.7,55.8 83.3,56.1 83.4,52.9 72.8,52.5 			"/>
			<polygon class="st7" points="72.5,60.9 83.2,61.3 83.3,58 72.6,57.6 			"/>
			<polygon class="st7" points="72.4,66 83,66.4 83.1,63.2 72.5,62.8 			"/>
			<polygon class="st7" points="72.2,70.9 82.9,71.3 83,68.1 72.3,67.7 			"/>
			<polygon class="st7" points="72.1,75.8 82.7,76.2 82.8,72.9 72.2,72.5 			"/>
			<polygon class="st7" points="71.9,80.6 82.6,81 82.7,77.8 72,77.4 			"/>
			<ellipse transform="matrix(0.9862 -0.1654 0.1654 0.9862 -13.379 14.711)" class="st7" cx="81.7" cy="87.7" rx="1.7" ry="1.7"/>
			<ellipse transform="matrix(0.9862 -0.1654 0.1654 0.9862 -13.234 15.584)" class="st7" cx="87" cy="87.3" rx="1.7" ry="1.7"/>
			
				<ellipse transform="matrix(0.9862 -0.1654 0.1654 0.9862 -13.0692 16.3349)" class="st7" cx="91.6" cy="86.7" rx="1.7" ry="1.7"/>
			<g>
				<path class="st19" d="M82.6,82l-10.7-0.2l-0.2,0l0-0.2l0.4-15.8l0.2-7.9l0.1-4l0-2c0-0.4,0-0.6,0-1c0.1-0.5,0.6-0.9,1.1-0.9
					l-0.1,0c0.8-0.2,1.5-0.3,2.3-0.4c0.8-0.1,1.5-0.2,2.3-0.1c0.8,0,1.5,0.1,2.3,0.3c0.8,0.1,1.5,0.3,2.3,0.5l-0.1,0
					c0.5,0,1,0.3,1.2,0.7c0.1,0.2,0.2,0.5,0.2,0.7c0,0.3,0,0.4,0,0.5l-0.1,2l-0.1,4c-0.1,2.7-0.2,5.4-0.3,8
					C83.2,71.6,82.9,76.9,82.6,82z M82.5,82c0-5.4,0-10.8,0.1-16.1c0-2.6,0.1-5.3,0.1-7.9l0.1-3.9l0.1-2l0-0.4c0-0.1,0-0.2-0.1-0.2
					c-0.1-0.1-0.2-0.2-0.4-0.3l-0.1,0l-0.1,0c-0.7-0.2-1.4-0.4-2.1-0.5c-0.7-0.1-1.5-0.2-2.2-0.3c-0.7-0.1-1.4,0-2.2,0.1
					c-0.7,0.1-1.5,0.2-2.2,0.4l-0.1,0l0,0c-0.1,0-0.3,0.1-0.3,0.2l0,0.9l-0.1,2l-0.2,4l-0.3,7.9L72,81.7l-0.1-0.2L82.5,82z"/>
			</g>
			<g>
				<path class="st19" d="M74.1,83.3c0,0.5-0.2,0.9-0.5,1.3c-0.3,0.4-0.8,0.6-1.3,0.7c-1,0.1-2.1-0.8-2.1-2c0-0.6,0.2-1.1,0.6-1.6
					c0.4-0.4,1-0.7,1.6-0.7c0.6,0,1.1,0.4,1.4,0.8C74,82.4,74.1,82.9,74.1,83.3z M74,83.3c0-0.4-0.3-0.8-0.6-1
					c-0.3-0.2-0.7-0.2-1-0.2c-0.6,0.1-1.3,0.5-1.3,1.2c-0.1,0.7,0.5,1.4,1.3,1.5c0.4,0,0.8-0.1,1.1-0.3C73.8,84.2,74,83.8,74,83.3z"
					/>
			</g>
			<g>
				<path class="st19" d="M79,83.5c0,0.5-0.2,0.9-0.5,1.3c-0.3,0.4-0.8,0.6-1.3,0.7c-1,0.1-2.1-0.8-2.1-2c0-0.6,0.2-1.1,0.6-1.6
					c0.4-0.4,1-0.7,1.6-0.7c0.6,0,1.1,0.4,1.4,0.8C78.9,82.5,79,83,79,83.5z M78.9,83.5c0-0.4-0.3-0.8-0.6-1c-0.3-0.2-0.7-0.2-1-0.2
					c-0.6,0.1-1.3,0.5-1.3,1.2c-0.1,0.7,0.5,1.4,1.3,1.5c0.4,0,0.8-0.1,1.1-0.3C78.7,84.4,78.9,83.9,78.9,83.5z"/>
			</g>
			<g>
				<path class="st19" d="M83.8,83.7c0,0.5-0.2,0.9-0.5,1.3c-0.3,0.4-0.8,0.6-1.3,0.7c-1,0.1-2.1-0.8-2.1-2c0-0.6,0.2-1.1,0.6-1.6
					c0.4-0.4,1-0.7,1.6-0.7c0.6,0,1.1,0.4,1.4,0.8C83.8,82.7,83.8,83.2,83.8,83.7z M83.7,83.7c0-0.4-0.3-0.8-0.6-1
					c-0.3-0.2-0.7-0.2-1-0.2c-0.6,0.1-1.3,0.5-1.3,1.2c-0.1,0.7,0.5,1.4,1.3,1.5c0.4,0,0.8-0.1,1.1-0.3
					C83.5,84.6,83.7,84.1,83.7,83.7z"/>
			</g>
			<g>
				<path class="st19" d="M83.4,87.4c0.1,0.5,0,0.9-0.3,1.3c-0.2,0.4-0.7,0.8-1.2,0.9c-1,0.3-2.2-0.5-2.4-1.6
					c-0.1-0.5,0-1.1,0.3-1.6c0.3-0.5,0.9-0.8,1.4-0.9c0.6-0.1,1.2,0.2,1.5,0.6C83.2,86.5,83.3,87,83.4,87.4z M83.3,87.4
					c-0.1-0.4-0.4-0.8-0.8-0.9c-0.4-0.1-0.7-0.1-1,0c-0.6,0.2-1.2,0.7-1.1,1.4c0,0.7,0.8,1.3,1.5,1.2c0.4,0,0.8-0.2,1.1-0.5
					C83.3,88.3,83.4,87.9,83.3,87.4z"/>
			</g>
			<g>
				<path class="st19" d="M88.7,87c0.1,0.5,0,0.9-0.3,1.3c-0.2,0.4-0.7,0.8-1.2,0.9c-1,0.3-2.2-0.5-2.4-1.6c-0.1-0.5,0-1.1,0.3-1.6
					c0.3-0.5,0.9-0.8,1.4-0.9c0.6-0.1,1.2,0.2,1.5,0.6C88.5,86,88.6,86.5,88.7,87z M88.6,87c-0.1-0.4-0.4-0.8-0.8-0.9
					c-0.4-0.1-0.7-0.1-1,0c-0.6,0.2-1.2,0.7-1.1,1.4c0,0.7,0.8,1.3,1.5,1.2c0.4,0,0.8-0.2,1.1-0.5C88.6,87.9,88.7,87.4,88.6,87z"/>
			</g>
			<g>
				<path class="st19" d="M93.3,86.4c0.1,0.5,0,0.9-0.3,1.3c-0.2,0.4-0.7,0.8-1.2,0.9c-1,0.3-2.2-0.5-2.4-1.6
					c-0.1-0.5,0-1.1,0.3-1.6c0.3-0.5,0.9-0.8,1.4-0.9c0.6-0.1,1.2,0.2,1.5,0.6C93.1,85.4,93.2,85.9,93.3,86.4z M93.2,86.4
					c-0.1-0.4-0.4-0.8-0.8-0.9c-0.4-0.1-0.7-0.1-1,0c-0.6,0.2-1.2,0.7-1.1,1.4c0,0.7,0.8,1.3,1.5,1.2c0.4,0,0.8-0.2,1.1-0.5
					C93.2,87.3,93.3,86.8,93.2,86.4z"/>
			</g>
		</g>
		<path class="st8" d="M68.2,36.4c1-0.2,4.4-0.9,5.2-2.9c0.1-0.1,0.2-0.1,0.3,0c0.9,1.9,4.4,2.4,5.4,2.5c0.1,0,0.2,0.1,0.1,0.2
			c-0.5,1-3.1,2.1-5.2,2.1c-2.5,0-5.3-0.7-6-1.7C68,36.6,68.1,36.5,68.2,36.4z"/>
		<circle class="st8" cx="84.7" cy="33.4" r="3"/>
		<circle class="st8" cx="61.6" cy="33.6" r="3"/>
		<circle class="st8" cx="85.1" cy="32.7" r="1.4"/>
		<circle class="st8" cx="62" cy="32.7" r="1.4"/>
		<g>
			<polygon class="st19" points="80,27.3 84.8,25.2 85.5,24.9 85.8,25.3 89.9,30.4 84.7,26.5 85.7,26.7 81.6,29.9 			"/>
		</g>
		<g>
			<polygon class="st19" points="64.7,29.9 60.6,26.7 61.6,26.5 56.4,30.4 60.5,25.3 60.8,24.9 61.5,25.2 66.3,27.3 			"/>
		</g>
		<path class="st18" d="M87.4,123.9c0,0-3.7-1.4-3.4-2.3c0.2-0.9,0.4-2.6,0.8-2.3c0.4,0.2,5.9,5.6,8.5,6.5
			C93.7,125.9,87.4,123.9,87.4,123.9z"/>
		<g>
			<path class="st19" d="M87.4,123.9c-0.9-0.4-1.9-0.7-2.7-1.2c-0.2-0.1-0.4-0.3-0.7-0.5c-0.1-0.1-0.2-0.2-0.3-0.4
				c0-0.1,0-0.2,0-0.3c0-0.1,0-0.1,0-0.2c0-0.5,0.1-1,0.2-1.5c0-0.1,0-0.3,0.1-0.4c0.1-0.1,0.1-0.3,0.3-0.6c0.1-0.1,0.1-0.1,0.3-0.2
				c0.2,0,0.3,0,0.4,0c0.2,0.1,0.2,0.1,0.3,0.2l0.3,0.2c0.4,0.3,0.8,0.6,1.2,0.9c0.8,0.6,1.5,1.2,2.3,1.9l2.2,1.9
				c0.4,0.3,0.7,0.6,1.1,0.9l0.6,0.4l0.3,0.2l0.1,0l0,0c0,0,0-0.1,0.2,0.2c0.1,0.1,0.1,0.5,0,0.6c-0.1,0.1-0.1,0.1-0.2,0.1
				c-0.1,0.1-0.4,0-0.4,0l-0.2-0.1l-2.8-1.2C89.3,124.6,88.3,124.3,87.4,123.9z M87.4,123.9l5.7,1.8l0.2,0.1c0,0,0,0,0,0
				c0,0-0.1,0,0,0.1c0,0,0,0,0,0l0,0l-0.1,0l-0.3-0.1c-0.2-0.1-0.4-0.2-0.7-0.4c-0.4-0.3-0.8-0.5-1.3-0.8c-0.8-0.6-1.6-1.2-2.4-1.8
				c-0.8-0.6-1.5-1.3-2.2-2l-1.1-1l-0.3-0.2c0,0-0.1-0.1-0.1-0.1c0,0-0.1,0-0.1,0c-0.1,0.1-0.2,0.4-0.3,0.6c-0.1,0.5-0.2,1-0.3,1.5
				c-0.1,0.3,0,0.4,0.2,0.6c0.2,0.2,0.4,0.3,0.6,0.5C85.6,123.1,86.5,123.5,87.4,123.9z"/>
		</g>
		<path class="st7" d="M78.3,128.1c0,0-0.2-1.7,0.2-3c0.3-0.9,1.4-3.3,1.6-3.3s0.8,2.7,2,2.7c1.2,0,2.4-3.4,2.9-3.1
			c5.8,3.1,14.8,4.2,14.8,4.2l-1.8,1.9l-4.1,1.2l-4.1,0.5"/>
		<path class="st17" d="M79.7,125.1c0.2-1.1,0.6-1.9,0.9-2.4c-0.2-0.5-0.4-1-0.5-1c-0.2,0-1.2,2.4-1.6,3.3c-0.4,1.3-0.2,3-0.2,3
			l2,0.2C79.7,127.2,79.6,125.6,79.7,125.1z"/>
		<g>
			<path class="st19" d="M78.3,128.1c-0.2-1.2-0.2-2.6,0.3-3.8c0.2-0.6,0.4-1.2,0.7-1.8c0.1-0.3,0.2-0.6,0.5-0.9l0.1-0.1l0,0
				c0,0,0.1-0.1,0.1-0.1c0.1,0,0.2,0,0.3,0c0.1,0.1,0.1,0.1,0.1,0.1c0.1,0.1,0.1,0.2,0.1,0.3l0.2,0.4c0.2,0.6,0.5,1.1,0.9,1.5
				c0.2,0.2,0.4,0.2,0.5,0.2c0.1,0,0.4-0.2,0.5-0.4c0.4-0.4,0.7-1,1-1.5c0.2-0.3,0.3-0.5,0.5-0.8c0.1-0.1,0.1-0.1,0.2-0.2
				c0.1-0.1,0.2-0.2,0.6-0.2c0.1,0,0.2,0.1,0.2,0.1l0.1,0l0.1,0.1l0.2,0.1c2.2,1.1,4.6,1.8,7,2.5c2.4,0.6,4.9,1.1,7.3,1.5l0.8,0.1
				l-0.6,0.6l-1.9,1.8l-0.1,0.1l-0.1,0c-1.4,0.3-2.7,0.7-4.1,1l0,0l0,0c-1.4,0.1-2.7,0.2-4.1,0.3c1.3-0.2,2.7-0.4,4-0.7l0,0
				c1.3-0.5,2.7-0.9,4-1.3l-0.1,0.1l1.8-1.9l0.2,0.7c-2.5-0.3-5-0.7-7.5-1.4c-2.4-0.6-4.9-1.4-7.1-2.6l-0.2-0.1l-0.1-0.1l-0.1,0
				c0,0,0.1,0,0.1,0c0.2,0,0.2,0,0.2,0c0,0-0.1,0.1-0.1,0.1c-0.2,0.2-0.3,0.5-0.5,0.7c-0.3,0.5-0.7,1.1-1.1,1.6
				c-0.2,0.2-0.5,0.5-1,0.6c-0.5,0.1-0.9-0.2-1.2-0.4c-0.5-0.5-0.7-1.2-1-1.8l-0.2-0.4c0-0.1-0.1-0.2-0.1-0.2c0,0,0-0.1,0,0
				c0.1,0.1,0.2,0,0.2,0c0,0,0.1,0,0.1,0c0,0,0,0,0,0l0,0c-0.1,0.2-0.3,0.5-0.4,0.8c-0.3,0.6-0.6,1.1-0.8,1.7
				C78.4,125.6,78.3,126.9,78.3,128.1z"/>
		</g>
		<path class="st14" d="M87.1,120.3L87.1,120.3c-0.1-0.1-0.3-0.2-0.4,0l-1.9,1.9c-0.1,0.1-0.1,0.3,0,0.5l0,0c0.1,0.1,0.3,0.2,0.4,0
			l1.9-1.9C87.2,120.6,87.2,120.4,87.1,120.3z"/>
		<path class="st14" d="M86.1,119.7L86.1,119.7c-0.2,0-0.3,0.1-0.3,0.3l-0.2,2.9c0,0.2,0.1,0.3,0.3,0.4l0,0c0.2,0,0.3-0.1,0.3-0.3
			l0.2-2.9C86.3,119.9,86.2,119.7,86.1,119.7z"/>
		<path class="st14" d="M88.4,121.7L88.4,121.7c-0.1-0.1-0.2-0.1-0.3,0l-1.4,1.4c-0.1,0.1-0.1,0.2,0,0.3l0,0c0.1,0.1,0.2,0.1,0.3,0
			l1.4-1.4C88.5,121.9,88.5,121.8,88.4,121.7z"/>
		<path class="st14" d="M87.6,121.2L87.6,121.2c-0.1,0-0.2,0.1-0.2,0.2l-0.2,2.1c0,0.1,0.1,0.3,0.2,0.3h0c0.1,0,0.2-0.1,0.2-0.2
			l0.2-2.1C87.8,121.4,87.8,121.3,87.6,121.2z"/>
		<path class="st18" d="M61.9,123.9c0,0,3.7-1.4,3.4-2.3c-0.2-0.9-0.4-2.6-0.8-2.3s-5.9,5.6-8.5,6.5
			C55.6,125.9,61.9,123.9,61.9,123.9z"/>
		<g>
			<path class="st19" d="M61.9,123.9c0.9-0.4,1.8-0.8,2.6-1.4c0.4-0.3,0.7-0.7,0.5-1c-0.2-0.5-0.3-1-0.5-1.4c0-0.1-0.1-0.2-0.1-0.3
				c0-0.1-0.1-0.2-0.1-0.1c0,0,0.1,0.1,0.2,0.1c0.1,0,0.2,0,0.3,0c0.1,0,0,0,0,0l-0.2,0.3c-0.3,0.4-0.7,0.7-1,1.1
				c-0.7,0.7-1.4,1.4-2.2,2.1c-0.8,0.6-1.6,1.3-2.5,1.8c-0.4,0.3-0.9,0.5-1.4,0.7c-0.2,0.1-0.5,0.2-0.7,0.3l-0.4,0.1l-0.1,0l0,0
				c0,0,0,0.1,0.2-0.2c0.1-0.1,0.1-0.5,0-0.6c-0.1-0.1-0.1-0.1-0.2-0.1c-0.1-0.1-0.3,0-0.3,0l0.2,0C58,124.9,60,124.5,61.9,123.9z
				 M61.9,123.9l-5.7,1.8l-0.2,0.1c0,0-0.1,0-0.1,0c0,0-0.1,0,0-0.1c0,0,0,0,0,0l0,0l0.1,0l0.3-0.1c0.2-0.1,0.4-0.2,0.7-0.4
				c0.4-0.3,0.8-0.5,1.2-0.8c0.8-0.6,1.6-1.2,2.3-1.9c0.8-0.6,1.5-1.3,2.3-2l1.1-1l0.3-0.2c0.1,0,0.1-0.1,0.2-0.1c0.1,0,0.2,0,0.3,0
				c0.2,0.2,0.2,0.5,0.3,0.7c0.1,0.5,0.2,1,0.3,1.5c0,0.1,0.1,0.3,0,0.4c0,0.1-0.1,0.2-0.2,0.3c-0.2,0.2-0.4,0.3-0.6,0.5
				C63.7,123.2,62.8,123.6,61.9,123.9z"/>
		</g>
		<path class="st7" d="M70.9,128.1c0,0,0.2-1.7-0.2-3c-0.3-0.9-1.4-3.3-1.6-3.3c-0.2,0-0.8,2.7-2,2.7c-1.2,0-2.4-3.4-2.9-3.1
			c-5.8,3.1-14.8,4.2-14.8,4.2l1.8,1.9l4.1,1.2l4.1,0.5"/>
		<path class="st17" d="M64.3,121.3c-5.8,3.1-14.8,4.2-14.8,4.2l1.8,1.9l0.5,0.2c0.5-0.7,2.2-1.8,3.9-2.5c1.5-0.6,9.1-3.3,9.1-3.3
			C64.6,121.5,64.4,121.3,64.3,121.3z"/>
		<g>
			<path class="st19" d="M70.9,128.1c0-1.3-0.1-2.5-0.7-3.6c-0.3-0.6-0.5-1.1-0.8-1.7c-0.1-0.3-0.3-0.6-0.4-0.8l0,0c0,0,0,0,0,0
				c0,0,0,0,0.1,0c0.1,0,0.1,0,0.2,0c0.1-0.1,0,0,0,0c0,0,0,0.1-0.1,0.2l-0.2,0.4c-0.2,0.6-0.5,1.2-1,1.8c-0.3,0.3-0.7,0.5-1.2,0.4
				c-0.5-0.1-0.7-0.4-1-0.6c-0.5-0.5-0.8-1.1-1.1-1.6c-0.2-0.3-0.3-0.5-0.5-0.7c0,0-0.1-0.1-0.1-0.1c0,0,0,0,0.2,0c0,0,0.1,0,0.1,0
				l-0.1,0l-0.1,0.1l-0.2,0.1c-2.3,1.2-4.7,2-7.1,2.6c-2.5,0.6-4.9,1.1-7.5,1.4l0.2-0.7l1.8,1.9l-0.1-0.1c1.3,0.4,2.7,0.8,4,1.3l0,0
				c1.3,0.2,2.7,0.4,4,0.7c-1.4-0.1-2.7-0.2-4.1-0.3l0,0l0,0c-1.4-0.3-2.7-0.7-4.1-1l-0.1,0l-0.1-0.1l-1.9-1.8l-0.6-0.6l0.8-0.1
				c2.4-0.4,4.9-0.9,7.3-1.5c2.4-0.7,4.8-1.4,7-2.5l0.2-0.1L64,121l0.1,0c0,0,0.1-0.1,0.2-0.1c0.4,0,0.5,0.1,0.6,0.2
				c0.1,0.1,0.2,0.2,0.2,0.2c0.2,0.3,0.4,0.6,0.5,0.8c0.3,0.5,0.6,1.1,1,1.5c0.2,0.2,0.4,0.4,0.5,0.4c0.1,0,0.3,0,0.5-0.2
				c0.4-0.3,0.7-0.9,0.9-1.5l0.2-0.4c0-0.1,0.1-0.1,0.1-0.3c0,0,0,0,0.1-0.1c0.1-0.1,0.2-0.1,0.3,0c0,0,0.1,0,0.1,0.1l0,0l0.1,0.1
				c0.2,0.3,0.3,0.6,0.5,0.9c0.3,0.6,0.5,1.2,0.7,1.8C71.1,125.6,71.1,126.9,70.9,128.1z"/>
		</g>
		<path class="st14" d="M62.2,120.3L62.2,120.3c0.1-0.1,0.3-0.2,0.4,0l1.9,1.9c0.1,0.1,0.1,0.3,0,0.5h0c-0.1,0.1-0.3,0.2-0.4,0
			l-1.9-1.9C62.1,120.6,62.1,120.4,62.2,120.3z"/>
		<path class="st14" d="M63.2,119.7L63.2,119.7c0.2,0,0.3,0.1,0.3,0.3l0.2,2.9c0,0.2-0.1,0.3-0.3,0.4l0,0c-0.2,0-0.3-0.1-0.3-0.3
			L63,120C62.9,119.9,63.1,119.7,63.2,119.7z"/>
		<path class="st14" d="M60.9,121.7L60.9,121.7c0.1-0.1,0.2-0.1,0.3,0l1.4,1.4c0.1,0.1,0.1,0.2,0,0.3l0,0c-0.1,0.1-0.2,0.1-0.3,0
			l-1.4-1.4C60.8,121.9,60.8,121.8,60.9,121.7z"/>
		<path class="st14" d="M61.6,121.2L61.6,121.2c0.1,0,0.2,0.1,0.2,0.2l0.2,2.1c0,0.1-0.1,0.3-0.2,0.3l0,0c-0.1,0-0.2-0.1-0.2-0.2
			l-0.2-2.1C61.4,121.4,61.5,121.3,61.6,121.2z"/>
		<g>
			<g>
				<path class="st14" d="M100.9,128.3c-7,1.6-14.3,2.2-21.6,1.7c-0.8-0.1-1.4-0.7-1.4-1.3l0,0c0-0.7,0.7-1.2,1.4-1.1
					c7.1,0.4,14.1-0.3,20.8-2.1c0.7-0.2,1.4,0.3,1.6,1.1c0,0,0,0,0,0C102.1,127.3,101.7,128.1,100.9,128.3z"/>
				<path class="st15" d="M79.8,127.5c-0.4,0-0.7,0-1.1-0.1c-0.4,0-0.7,0.2-0.7,0.5c0,0.4,0,0.8-0.1,1.3c0,0.3,0.3,0.6,0.6,0.6
					c0.7,0.1,1.5,0.1,2.2,0.2c-0.1-0.2-0.3-0.3-0.4-0.5C79.3,127.8,79.8,127.5,79.8,127.5z"/>
				<g>
					<path class="st19" d="M100.9,128.3c-4.2,0.9-8.5,1.7-12.8,2c-2.2,0.1-4.4,0.1-6.6,0.1c-0.5,0-1.1,0-1.7-0.1
						c-0.3,0-0.5,0-0.9-0.1c-0.3-0.1-0.7-0.3-0.9-0.5c-0.5-0.5-0.6-1.2-0.3-1.7c0.3-0.5,1-0.9,1.7-0.8c4.2,0.2,8.4-0.1,12.6-0.6
						c2.1-0.2,4.1-0.5,6.2-0.9c0.5-0.1,1-0.2,1.5-0.3c0.3,0,0.5-0.1,0.8-0.1c0.3,0,0.6,0.1,0.8,0.3c0.5,0.3,0.8,1,0.6,1.6
						C101.9,127.7,101.5,128.2,100.9,128.3z M100.9,128.2c0.5-0.1,0.9-0.6,1-1.1c0.1-0.5-0.2-1.1-0.6-1.3c-0.2-0.1-0.4-0.2-0.7-0.2
						c-0.2,0-0.5,0.1-0.7,0.2c-0.5,0.2-1,0.3-1.5,0.4c-2,0.6-4.1,1-6.2,1.3c-4.2,0.6-8.5,0.6-12.7,0.3c-0.4,0-0.8,0.2-0.9,0.4
						c-0.2,0.3-0.1,0.7,0.1,1c0.1,0.1,0.3,0.2,0.5,0.3c0.2,0.1,0.5,0.1,0.7,0.1c0.5,0,1.1,0.1,1.6,0.1c2.2,0.1,4.4,0.1,6.5,0
						C92.4,129.7,96.7,129.3,100.9,128.2z"/>
				</g>
			</g>
		</g>
		<g>
			<g>
				<path class="st14" d="M70,130.1c-7.6,0.6-15.2,0-22.4-1.6c-0.8-0.2-1.2-1-1-1.7l0,0c0.2-0.8,0.9-1.3,1.7-1.1
					c7,1.7,14.3,2.4,21.7,2c0.8,0,1.4,0.4,1.4,1.1l0,0C71.4,129.4,70.8,130,70,130.1z"/>
				<path class="st15" d="M46.5,127.2c-0.1,0.5,0.2,1,0.6,1.1c0.9,0.2,1.9,0.4,2.8,0.6c0-0.1,0-0.2,0-0.2c-0.1-1.7,1-2.4,1-2.4
					c-1.1-0.2-2.2-0.5-3.3-0.8c-0.4-0.1-0.8,0.2-0.9,0.6C46.7,126.4,46.6,126.8,46.5,127.2z"/>
				<g>
					<path class="st19" d="M70,130.1c-2.3,0.2-4.5,0.3-6.8,0.3c-2.3,0.1-4.5,0-6.8-0.1c-2.3-0.1-4.5-0.3-6.7-0.7
						c-0.6-0.1-1.1-0.2-1.7-0.3c-0.1,0-0.3-0.1-0.4-0.1c-0.1,0-0.1,0-0.2,0c-0.1,0-0.2-0.1-0.3-0.1c-0.4-0.2-0.8-0.5-1-0.9
						c-0.5-0.8-0.5-1.9,0.1-2.7c0.5-0.8,1.5-1.2,2.4-1c2.1,0.6,4.2,1.1,6.3,1.4c2.1,0.4,4.3,0.8,6.4,1c2.2,0.2,4.3,0.4,6.5,0.4
						c0.5,0,1.1,0,1.7,0c0.3,0,0.5,0,0.8,0c0.3,0,0.6,0.1,0.8,0.3c0.5,0.3,0.6,0.9,0.4,1.4C71.2,129.7,70.6,130.1,70,130.1z M70,130
						c0.6,0,1.1-0.4,1.2-0.8c0.2-0.4,0-1-0.4-1.2c-0.2-0.1-0.5-0.2-0.7-0.2c-0.3,0-0.5,0-0.8,0c-0.6,0-1.1,0.1-1.7,0.1
						c-2.2,0.1-4.4,0-6.6-0.1c-4.4-0.3-8.7-0.9-12.9-2c-0.5-0.1-1,0.1-1.3,0.5c-0.3,0.4-0.3,1.1,0,1.5c0.1,0.2,0.3,0.4,0.6,0.5
						c0.2,0.1,0.5,0.1,0.8,0.2c0.5,0.1,1.1,0.2,1.6,0.3c2.2,0.4,4.4,0.8,6.6,1C61,130.3,65.5,130.4,70,130z"/>
				</g>
			</g>
		</g>
	</g>
	<path class="st7" d="M25.1,62.6l0.1-11.5l37.8,0.4c0,0,0,3.9-0.1,5.5c-0.1,1.6-0.6,4.9-0.6,4.9c0,0.6-0.5,1.1-1.1,1.1L25.1,62.6z"
		/>
	<polygon class="st17" points="57.2,51.4 57.1,63 60.6,63 60.7,51.5 	"/>
	<polygon class="st17" points="51.7,51.4 51.6,62.9 55.1,62.9 55.2,51.4 	"/>
	<polygon class="st17" points="45.8,51.3 45.7,62.8 49.2,62.9 49.3,51.4 	"/>
	<polygon class="st17" points="39.5,51.2 39.4,62.7 42.9,62.8 43,51.3 	"/>
	<polygon class="st17" points="33.4,51.2 33.3,62.7 36.8,62.7 36.9,51.2 	"/>
	<g>
		<path class="st19" d="M25.1,62.6l0-11.5l0-0.1l0.1,0l37.8,0.2l0.4,0l0,0.4c0,1.8,0,3.5-0.1,5.3c-0.1,0.9-0.2,1.7-0.3,2.6L62.8,62
			l0-0.1c0,0.6-0.3,1.1-0.8,1.4c-0.2,0.1-0.6,0.2-0.8,0.2l-0.6,0l-2.4,0l-4.8-0.1c-3.2,0-6.4-0.1-9.5-0.2
			C37.5,63.1,31.3,62.8,25.1,62.6z M25.2,62.5c6.4-0.1,12.8-0.1,19-0.1c3.1,0,6.3,0,9.4,0l4.7,0.1l2.3,0l0.6,0c0.2,0,0.2,0,0.3-0.1
			c0.2-0.1,0.3-0.3,0.3-0.5l0,0l0,0l0.4-2.6c0.1-0.9,0.3-1.7,0.3-2.6c0.1-1.7,0.1-3.5,0.2-5.2l0.4,0.4l-37.8-0.7l0.1-0.1L25.2,62.5z
			"/>
	</g>
	<polygon class="st17" points="27,51.1 26.9,62.6 30.3,62.6 30.4,51.1 	"/>
	<path class="st20" d="M120.3,52.2l-0.6,13l-37.5-1.7c-0.5,0-0.8-0.4-0.8-0.9c0,0-0.8-3.5-0.6-5.6c0.3-3.3,1.1-5.3,1.1-5.3
		c0-0.7,0.6-1.2,1.3-1.2L120.3,52.2z"/>
	
		<ellipse transform="matrix(1.414645e-02 -0.9999 0.9999 1.414645e-02 55.285 185.5412)" class="st20" cx="121.7" cy="64.7" rx="2.1" ry="2.1"/>
	
		<ellipse transform="matrix(1.414645e-02 -0.9999 0.9999 1.414645e-02 61.5799 179.8858)" class="st20" cx="122" cy="58.7" rx="2.1" ry="2.1"/>
	
		<ellipse transform="matrix(1.414645e-02 -0.9999 0.9999 1.414645e-02 67.8339 174.3452)" class="st20" cx="122.3" cy="52.8" rx="2.1" ry="2.1"/>
	<polygon class="st7" points="87.9,63.8 88.6,50.7 84.7,50.6 84,63.6 	"/>
	<polygon class="st7" points="94.2,64.1 94.8,51 90.9,50.8 90.2,63.9 	"/>
	<polygon class="st7" points="100.4,64.3 101.1,51.3 97.2,51.1 96.5,64.2 	"/>
	<polygon class="st7" points="106.4,64.6 107.1,51.6 103.2,51.4 102.5,64.4 	"/>
	<polygon class="st7" points="112.4,64.9 113.1,51.8 109.2,51.7 108.5,64.7 	"/>
	<polygon class="st7" points="118.4,65.2 119.1,52.1 115.1,51.9 114.5,65 	"/>
	
		<ellipse transform="matrix(0.9985 -5.393542e-02 5.393542e-02 0.9985 -2.7362 1.3435)" class="st7" cx="23.5" cy="51.4" rx="1.8" ry="1.8"/>
	
		<ellipse transform="matrix(0.9985 -5.393542e-02 5.393542e-02 0.9985 -3.0467 1.3424)" class="st7" cx="23.3" cy="57.1" rx="1.8" ry="1.8"/>
	
		<ellipse transform="matrix(0.9985 -5.393542e-02 5.393542e-02 0.9985 -3.3163 1.3553)" class="st7" cx="23.5" cy="62.1" rx="1.8" ry="1.8"/>
	<g>
		<path class="st19" d="M120.3,52.1l-0.5,13.1l0,0.2l-0.2,0l-19.4-0.7l-9.7-0.4l-4.9-0.2L83.3,64c-0.4,0-0.8,0-1.3-0.1
			c-0.6-0.1-1.1-0.7-1-1.3l0,0.1c-0.2-0.9-0.4-1.8-0.5-2.8c-0.1-0.9-0.2-1.9-0.1-2.9c0.1-0.9,0.2-1.9,0.4-2.8
			c0.2-0.9,0.4-1.8,0.7-2.8l0,0.1c0-0.6,0.3-1.1,0.8-1.4c0.2-0.1,0.5-0.2,0.8-0.2c0.3,0,0.4,0,0.7,0l2.5,0.1l4.9,0.2
			c3.3,0.1,6.6,0.3,9.8,0.5C107.5,51.3,114,51.7,120.3,52.1z M120.2,52.2c-6.6-0.2-13.2-0.3-19.6-0.5c-3.2-0.1-6.5-0.2-9.7-0.3
			l-4.8-0.2L83.7,51l-0.6,0c-0.1,0-0.2,0-0.3,0.1c-0.2,0.1-0.4,0.4-0.4,0.6l0,0.1l0,0.1c-0.3,0.8-0.5,1.7-0.7,2.6
			c-0.2,0.9-0.3,1.8-0.4,2.7c-0.1,0.9,0,1.8,0.1,2.7c0.1,0.9,0.3,1.8,0.4,2.7l0,0.1l0,0c0,0.2,0.1,0.4,0.4,0.5l1.2,0.1l2.4,0.1
			l4.8,0.2l9.7,0.5l19.4,1l-0.2,0.1L120.2,52.2z"/>
	</g>
	<g>
		<path class="st19" d="M121.8,62.6c0.6,0,1.1,0.2,1.5,0.6c0.4,0.4,0.7,1,0.8,1.6c0.1,1.3-1,2.5-2.4,2.5c-0.7,0-1.3-0.2-1.8-0.7
			c-0.5-0.5-0.8-1.2-0.7-1.8c0-0.7,0.4-1.3,0.9-1.7C120.6,62.7,121.2,62.6,121.8,62.6z M121.8,62.7c-0.5,0-1,0.3-1.3,0.7
			c-0.3,0.4-0.3,0.9-0.3,1.3c0,0.8,0.6,1.7,1.6,1.7c0.9,0.1,1.8-0.7,1.9-1.7c0-0.5-0.1-1-0.4-1.4C122.8,62.9,122.3,62.7,121.8,62.7z
			"/>
	</g>
	<g>
		<path class="st19" d="M122,56.6c0.6,0,1.1,0.2,1.5,0.6c0.4,0.4,0.7,1,0.8,1.6c0.1,1.3-1,2.5-2.4,2.5c-0.7,0-1.3-0.2-1.8-0.7
			c-0.5-0.5-0.8-1.2-0.7-1.8c0-0.7,0.4-1.3,0.9-1.7C120.9,56.7,121.5,56.5,122,56.6z M122,56.7c-0.5,0-1,0.3-1.3,0.7
			c-0.3,0.4-0.3,0.9-0.3,1.3c0,0.8,0.6,1.7,1.6,1.7c0.9,0.1,1.8-0.7,1.9-1.7c0-0.5-0.1-1-0.4-1.4C123.1,56.9,122.6,56.6,122,56.7z"
			/>
	</g>
	<g>
		<path class="st19" d="M122.4,50.6c0.6,0,1.1,0.2,1.5,0.6c0.4,0.4,0.7,1,0.8,1.6c0.1,1.3-1,2.5-2.4,2.5c-0.7,0-1.3-0.2-1.8-0.7
			c-0.5-0.5-0.8-1.2-0.7-1.8c0-0.7,0.4-1.3,0.9-1.7C121.2,50.7,121.8,50.6,122.4,50.6z M122.4,50.7c-0.5,0-1,0.3-1.3,0.7
			c-0.3,0.4-0.3,0.9-0.3,1.3c0,0.8,0.6,1.7,1.6,1.7c0.9,0.1,1.8-0.7,1.9-1.7c0-0.5-0.1-1-0.4-1.4C123.4,51,122.9,50.7,122.4,50.7z"
			/>
	</g>
	<g>
		<path class="st19" d="M23.6,53.3c-0.5,0-1-0.1-1.4-0.4c-0.4-0.3-0.7-0.8-0.8-1.3c-0.1-1.1,0.8-2.3,2-2.4c0.6-0.1,1.2,0.1,1.7,0.5
			c0.5,0.4,0.8,1,0.8,1.6c0,0.6-0.3,1.2-0.8,1.5C24.6,53.1,24.1,53.2,23.6,53.3z M23.6,53.2c0.5,0,0.9-0.4,1.1-0.7
			c0.2-0.4,0.2-0.8,0.2-1.1c-0.1-0.7-0.6-1.4-1.4-1.4c-0.8,0-1.5,0.7-1.5,1.5c0,0.4,0.1,0.9,0.4,1.2C22.7,53,23.1,53.2,23.6,53.2z"
			/>
	</g>
	<g>
		<path class="st19" d="M23.4,59c-0.5,0-1-0.1-1.4-0.4c-0.4-0.3-0.7-0.8-0.8-1.3c-0.1-1.1,0.8-2.3,2-2.4c0.6-0.1,1.2,0.1,1.7,0.5
			c0.5,0.4,0.8,1,0.8,1.6c0,0.6-0.3,1.2-0.8,1.5C24.5,58.9,23.9,59,23.4,59z M23.4,58.9c0.5,0,0.9-0.4,1.1-0.7
			c0.2-0.4,0.2-0.8,0.2-1.1c-0.1-0.7-0.6-1.4-1.4-1.4c-0.8,0-1.5,0.7-1.5,1.5c0,0.4,0.1,0.9,0.4,1.2C22.5,58.8,23,59,23.4,58.9z"/>
	</g>
	<g>
		<path class="st19" d="M23.6,64c-0.5,0-1-0.1-1.4-0.4c-0.4-0.3-0.7-0.8-0.8-1.3c-0.1-1.1,0.8-2.3,2-2.4c0.6-0.1,1.2,0.1,1.7,0.5
			c0.5,0.4,0.8,1,0.8,1.6c0,0.6-0.3,1.2-0.8,1.5C24.6,63.9,24,64,23.6,64z M23.5,63.9c0.5,0,0.9-0.4,1.1-0.7
			c0.2-0.4,0.2-0.8,0.2-1.1c-0.1-0.7-0.6-1.4-1.4-1.4c-0.8,0-1.5,0.7-1.5,1.5c0,0.4,0.1,0.9,0.4,1.2C22.6,63.8,23.1,64,23.5,63.9z"
			/>
	</g>
</g>
</svg>
